<?xml version="1.0" encoding="UTF-8"?>
<svg id="Layer_1" data-name="Layer 1" xmlns="http://www.w3.org/2000/svg" viewBox="0 0 336 76">
  <defs>
    <style>
      .cls-1 {
        fill: #3681fe;
      }
    </style>
  </defs>
  <path class="cls-1" d="M144.9,35.19c-1.26-.72-2.62-1.09-4.07-1.09s-2.78.35-4.01,1.06c-1.22.71-2.22,1.74-2.98,3.09-.76,1.36-1.14,2.96-1.14,4.82s.38,3.48,1.14,4.87c.76,1.39,1.76,2.46,3.01,3.2,1.24.74,2.57,1.11,3.98,1.11s2.8-.36,4.07-1.09c1.26-.72,2.26-1.76,3.01-3.12.74-1.35,1.11-2.98,1.11-4.87s-.37-3.52-1.11-4.87c-.74-1.35-1.75-2.39-3.01-3.12Z"/>
  <path class="cls-1" d="M32.3,26.08h-6.18v11.3h6.18c2.15,0,3.75-.49,4.79-1.48,1.04-.98,1.56-2.37,1.56-4.15,0-3.79-2.12-5.68-6.35-5.68Z"/>
  <path class="cls-1" d="M70.34,35.19c-1.26-.72-2.62-1.09-4.07-1.09s-2.78.35-4.01,1.06c-1.22.71-2.22,1.74-2.98,3.09-.76,1.36-1.14,2.96-1.14,4.82s.38,3.48,1.14,4.87c.76,1.39,1.76,2.46,3.01,3.2,1.24.74,2.57,1.11,3.98,1.11s2.8-.36,4.07-1.09c1.26-.72,2.26-1.76,3.01-3.12.74-1.35,1.11-2.98,1.11-4.87s-.37-3.52-1.11-4.87c-.74-1.35-1.75-2.39-3.01-3.12Z"/>
  <path class="cls-1" d="M185.89,32.6v-10.8h-6.44V1.13H1.65v73.75h177.8v-19.11h6.44v-10.8h10.52v-12.36h-10.52ZM45.19,37.61c-.98,1.82-2.53,3.29-4.62,4.4-2.1,1.11-4.74,1.67-7.94,1.67h-6.52v14.92h-7.8V19.73h14.31c3.01,0,5.57.52,7.68,1.56,2.12,1.04,3.7,2.47,4.76,4.29,1.06,1.82,1.59,3.88,1.59,6.18,0,2.08-.49,4.03-1.48,5.85ZM82.31,58.6h-7.85v-4.51c-1,1.45-2.39,2.65-4.15,3.59-1.76.95-3.8,1.42-6.1,1.42-2.6,0-4.97-.67-7.1-2-2.14-1.34-3.82-3.22-5.07-5.65-1.24-2.43-1.87-5.23-1.87-8.38s.62-5.88,1.87-8.3c1.24-2.41,2.93-4.27,5.07-5.57,2.13-1.3,4.52-1.95,7.16-1.95,2.3,0,4.32.46,6.04,1.39,1.73.93,3.11,2.1,4.15,3.51v-4.4h7.85v30.85ZM119.34,58.6h-7.8v-17.04c0-2.45-.61-4.33-1.84-5.65-1.22-1.32-2.9-1.98-5.01-1.98s-3.85.66-5.1,1.98c-1.24,1.32-1.87,3.2-1.87,5.65v17.04h-7.8v-30.85h7.8v3.84c1.04-1.34,2.37-2.39,3.98-3.15,1.61-.76,3.39-1.14,5.32-1.14,3.68,0,6.65,1.16,8.91,3.48,2.26,2.32,3.4,5.56,3.4,9.72v18.1ZM156.88,58.6h-7.85v-4.51c-1,1.45-2.39,2.65-4.15,3.59-1.76.95-3.8,1.42-6.1,1.42-2.6,0-4.97-.67-7.1-2-2.14-1.34-3.82-3.22-5.07-5.65-1.24-2.43-1.87-5.23-1.87-8.38s.62-5.88,1.87-8.3c1.24-2.41,2.93-4.27,5.07-5.57,2.13-1.3,4.52-1.95,7.16-1.95,2.3,0,4.32.46,6.04,1.39,1.73.93,3.11,2.1,4.15,3.51v-4.4h7.85v30.85ZM193.63,42.18h-10.52v10.8h-7.35v-10.8h-10.52v-6.79h10.52v-10.8h7.35v10.8h10.52v6.79Z"/>
  <path class="cls-1" d="M215.29,24.93c2.15-1.26,4.58-1.89,7.29-1.89s5.24.63,7.27,1.89c2.02,1.26,3.57,3.06,4.65,5.4h6.07c-1.45-3.75-3.75-6.65-6.91-8.69-3.16-2.04-6.85-3.06-11.08-3.06-3.6,0-6.88.85-9.83,2.56-2.95,1.71-5.28,4.08-6.99,7.1-1.71,3.03-2.56,6.43-2.56,10.22s.85,7.18,2.56,10.19c1.71,3.01,4.04,5.36,6.99,7.04,2.95,1.69,6.23,2.53,9.83,2.53,4.23,0,7.93-1.01,11.08-3.03,3.16-2.02,5.46-4.89,6.91-8.6h-6.07c-1.08,2.34-2.63,4.13-4.65,5.37-2.02,1.24-4.45,1.87-7.27,1.87s-5.14-.63-7.29-1.89c-2.15-1.26-3.84-3.05-5.07-5.37-1.23-2.32-1.84-5.02-1.84-8.1s.61-5.84,1.84-8.16c1.22-2.32,2.91-4.11,5.07-5.37Z"/>
  <path class="cls-1" d="M272.04,32.95c-.97-1.74-2.43-3.19-4.4-4.34-1.97-1.15-4.29-1.73-6.96-1.73s-5.17.65-7.38,1.95c-2.21,1.3-3.94,3.13-5.21,5.49-1.26,2.36-1.89,5.1-1.89,8.21s.63,5.83,1.89,8.24c1.26,2.41,2.99,4.29,5.18,5.62,2.19,1.34,4.64,2,7.35,2s4.95-.58,6.93-1.75c1.99-1.17,3.48-2.64,4.48-4.43v5.68h5.12v-30.52h-5.12v5.57ZM270.65,48.63c-.93,1.73-2.18,3.04-3.76,3.95-1.58.91-3.31,1.36-5.21,1.36s-3.62-.45-5.18-1.36c-1.56-.91-2.8-2.23-3.73-3.95-.93-1.73-1.39-3.76-1.39-6.1s.46-4.31,1.39-6.01c.93-1.71,2.17-3.01,3.73-3.9,1.56-.89,3.29-1.34,5.18-1.34s3.63.45,5.21,1.36c1.58.91,2.83,2.22,3.76,3.93.93,1.71,1.39,3.71,1.39,6.01s-.46,4.32-1.39,6.04Z"/>
  <path class="cls-1" d="M290.8,32.34v-4.96h-5.07v30.52h5.07v-16.59c0-6.16,2.84-9.24,8.52-9.24h1.34v-5.23c-2.38,0-4.39.48-6.04,1.45-1.65.97-2.92,2.32-3.81,4.07Z"/>
  <path class="cls-1" d="M334.35,41.47c0-2.78-.6-5.28-1.81-7.49-1.21-2.21-2.92-3.94-5.15-5.21-2.23-1.26-4.79-1.89-7.69-1.89s-5.6.64-7.88,1.92c-2.28,1.28-4.06,3.11-5.32,5.49-1.26,2.38-1.89,5.14-1.89,8.3s.65,5.93,1.95,8.33c1.3,2.39,3.09,4.24,5.37,5.54,2.28,1.3,4.87,1.95,7.77,1.95,3.64,0,6.68-.92,9.13-2.76,2.45-1.84,4.08-4.22,4.9-7.16h-5.46c-.59,1.71-1.62,3.07-3.09,4.09-1.47,1.02-3.3,1.53-5.49,1.53-2.67,0-4.95-.84-6.82-2.53-1.88-1.69-2.91-4.04-3.09-7.04h24.39c.11-1.08.17-2.1.17-3.06ZM309.85,40.41c.26-2.9,1.29-5.16,3.09-6.79,1.8-1.63,3.98-2.45,6.54-2.45,1.78,0,3.41.36,4.87,1.09,1.47.72,2.63,1.78,3.48,3.17.85,1.39,1.28,3.05,1.28,4.98h-19.27Z"/>
</svg>